<svg width="1200" height="630" xmlns="http://www.w3.org/2000/svg">
  <defs>
    <linearGradient id="bgGrad" x1="0%" y1="0%" x2="100%" y2="100%">
      <stop offset="0%" stop-color="#0a0a0a"/>
      <stop offset="100%" stop-color="#1a1a2e"/>
    </linearGradient>
    <radialGradient id="glow" cx="22%" cy="45%" r="55%">
      <stop offset="0%" stop-color="#00ADD8" stop-opacity="0.3"/>
      <stop offset="100%" stop-color="#00ADD8" stop-opacity="0"/>
    </radialGradient>
  </defs>
  <rect width="1200" height="630" fill="url(#bgGrad)"/>
  <rect width="1200" height="630" fill="url(#glow)"/>
  <g opacity="1"><circle cx="66" cy="56" r="22" fill="#00ADD8"/><rect x="55.9" y="47.2" width="20.2" height="2.6" rx="1.5" fill="#ffffff" fill-opacity="0.9"/><rect x="55.9" y="50.2" width="20.2" height="2.6" rx="1.5" fill="#ffffff" fill-opacity="0.7"/><rect x="55.9" y="53.1" width="20.2" height="2.6" rx="1.5" fill="#ffffff" fill-opacity="0.5"/><rect x="55.9" y="56.1" width="20.2" height="2.6" rx="1.5" fill="#ffffff" fill-opacity="0.3"/>
  <text x="106" y="64.32" font-family="Liberation Sans, Arial, sans-serif" font-size="26" font-weight="bold" fill="#ffffff">Goca</text></g>
  <g opacity="1"><rect x="969" y="40" width="171" height="36" rx="18" fill="#00ADD8" fill-opacity="0.14" stroke="#00ADD8" stroke-width="1.3"/>
  <text x="1054.5" y="62.8" font-family="Liberation Sans, Arial, sans-serif" font-size="15" font-weight="700" letter-spacing="0.5" fill="#00D9FF" text-anchor="middle">CROSS-CUTTING</text></g>
  <g opacity="1"><circle cx="190" cy="350" r="110" fill="#00ADD8" fill-opacity="0.12" stroke="#00ADD8" stroke-width="2"/>
  <circle cx="190" cy="350" r="85" fill="#00ADD8"/>
  <g transform="translate(143.3,303.3) scale(3.896)" fill="none" stroke="#ffffff" stroke-width="2" stroke-linecap="round" stroke-linejoin="round"><circle cx="12" cy="12" r="3"/><path d="M19.4 15a1.65 1.65 0 0 0 .33 1.82l.06.06a2 2 0 1 1-2.83 2.83l-.06-.06a1.65 1.65 0 0 0-1.82-.33 1.65 1.65 0 0 0-1 1.51V21a2 2 0 0 1-4 0v-.09A1.65 1.65 0 0 0 9 19.4a1.65 1.65 0 0 0-1.82.33l-.06.06a2 2 0 1 1-2.83-2.83l.06-.06a1.65 1.65 0 0 0 .33-1.82 1.65 1.65 0 0 0-1.51-1H3a2 2 0 0 1 0-4h.09A1.65 1.65 0 0 0 4.6 9a1.65 1.65 0 0 0-.33-1.82l-.06-.06a2 2 0 1 1 2.83-2.83l.06.06a1.65 1.65 0 0 0 1.82.33H9a1.65 1.65 0 0 0 1-1.51V3a2 2 0 0 1 4 0v.09a1.65 1.65 0 0 0 1 1.51 1.65 1.65 0 0 0 1.82-.33l.06-.06a2 2 0 1 1 2.83 2.83l-.06.06a1.65 1.65 0 0 0-.33 1.82V9a1.65 1.65 0 0 0 1.51 1H21a2 2 0 0 1 0 4h-.09a1.65 1.65 0 0 0-1.51 1Z"/></g></g>
  <text x="360" y="260" font-family="Liberation Sans, Arial, sans-serif" font-size="44" font-weight="bold" fill="#ffffff">.goca.yaml,</text>
  <text x="360" y="316" font-family="Liberation Sans, Arial, sans-serif" font-size="44" font-weight="bold" fill="#00D9FF">not tribal knowledge.</text>
  <text x="360" y="372" font-family="Liberation Sans, Arial, sans-serif" font-size="21" fill="#ffffff" fill-opacity="0.72">Show, validate or scaffold your project</text>
  <text x="360" y="404" font-family="Liberation Sans, Arial, sans-serif" font-size="21" fill="#ffffff" fill-opacity="0.72">config from the command line.</text>
  <g opacity="1"><rect x="360" y="460" width="780" height="64" rx="14" fill="#000000" fill-opacity="0.35" stroke="#00ADD8" stroke-width="1.5" stroke-opacity="0.5"/>
  <text x="384" y="498.4" font-family="Liberation Mono, monospace" font-size="20" fill="#00D9FF" text-anchor="start">$ goca config validate</text></g>
  <text x="1140" y="592" font-family="Liberation Sans, Arial, sans-serif" font-size="17" fill="#ffffff" fill-opacity="0.5" text-anchor="end">sazardev.github.io/goca</text>
</svg>
