<svg width="1080" height="1080" xmlns="http://www.w3.org/2000/svg">
  <defs>
    <linearGradient id="bgGrad" x1="0%" y1="0%" x2="100%" y2="100%">
      <stop offset="0%" stop-color="#0a0a0a"/>
      <stop offset="100%" stop-color="#1a1a2e"/>
    </linearGradient>
    <radialGradient id="glow" cx="50%" cy="35%" r="55%">
      <stop offset="0%" stop-color="#00ADD8" stop-opacity="0.3"/>
      <stop offset="100%" stop-color="#00ADD8" stop-opacity="0"/>
    </radialGradient>
  </defs>
  <rect width="1080" height="1080" fill="url(#bgGrad)"/>
  <rect width="1080" height="1080" fill="url(#glow)"/>
  <g opacity="1"><circle cx="88" cy="86" r="26" fill="#00ADD8"/><rect x="76.0" y="75.6" width="23.9" height="3.1" rx="1.5" fill="#ffffff" fill-opacity="0.9"/><rect x="76.0" y="79.1" width="23.9" height="3.1" rx="1.5" fill="#ffffff" fill-opacity="0.7"/><rect x="76.0" y="82.6" width="23.9" height="3.1" rx="1.5" fill="#ffffff" fill-opacity="0.5"/><rect x="76.0" y="86.1" width="23.9" height="3.1" rx="1.5" fill="#ffffff" fill-opacity="0.3"/>
  <text x="132" y="96.24" font-family="Liberation Sans, Arial, sans-serif" font-size="32" font-weight="bold" fill="#ffffff">Goca</text></g>
  <g opacity="1"><rect x="836" y="62" width="154" height="44" rx="22" fill="#00ADD8" fill-opacity="0.14" stroke="#00ADD8" stroke-width="1.3"/>
  <text x="913" y="89.44" font-family="Liberation Sans, Arial, sans-serif" font-size="17" font-weight="700" letter-spacing="0.5" fill="#00D9FF" text-anchor="middle">ALL LAYERS</text></g>
  <g opacity="1"><circle cx="540" cy="430" r="120" fill="#00ADD8" fill-opacity="0.12" stroke="#00ADD8" stroke-width="2"/>
  <circle cx="540" cy="430" r="90" fill="#00ADD8"/>
  <g transform="translate(490.5,380.5) scale(4.125)" fill="none" stroke="#ffffff" stroke-width="2" stroke-linecap="round" stroke-linejoin="round"><path d="M4.5 16.5c-1.5 1.26-2 5-2 5s3.74-.5 5-2c.71-.84.7-2.13-.09-2.91a2.18 2.18 0 0 0-2.91-.09z"/><path d="m12 15-3-3a22 22 0 0 1 2-3.95A12.88 12.88 0 0 1 22 2c0 2.72-.78 7.5-6 11a22.35 22.35 0 0 1-4 2z"/><path d="M9 12H4s.55-3.03 2-4c1.62-1.08 5 0 5 0"/><path d="M12 15v5s3.03-.55 4-2c1.08-1.62 0-5 0-5"/></g></g>
  <text x="540" y="612" font-family="Liberation Sans, Arial, sans-serif" font-size="58" font-weight="bold" fill="#ffffff" text-anchor="middle">Idea to feature</text>
  <text x="540" y="678" font-family="Liberation Sans, Arial, sans-serif" font-size="58" font-weight="bold" fill="#00D9FF" text-anchor="middle">in seconds.</text>
  <text x="540" y="738" font-family="Liberation Sans, Arial, sans-serif" font-size="27" fill="#ffffff" fill-opacity="0.72" text-anchor="middle">One command scaffolds domain, use case,</text>
  <text x="540" y="772" font-family="Liberation Sans, Arial, sans-serif" font-size="27" fill="#ffffff" fill-opacity="0.72" text-anchor="middle">repository and handler — fully wired.</text>
  <g opacity="1"><rect x="90" y="850" width="900" height="72" rx="14" fill="#000000" fill-opacity="0.35" stroke="#00ADD8" stroke-width="1.5" stroke-opacity="0.5"/>
  <text x="540" y="893.68" font-family="Liberation Mono, monospace" font-size="24" fill="#00D9FF" text-anchor="middle">$ goca feature Order --fields &quot;id:string,total:float64&quot;</text></g>
  <text x="540" y="1010" font-family="Liberation Sans, Arial, sans-serif" font-size="22" fill="#ffffff" fill-opacity="0.5" text-anchor="middle">sazardev.github.io/goca</text>
</svg>
