<svg width="1200" height="630" xmlns="http://www.w3.org/2000/svg">
  <defs>
    <linearGradient id="bgGrad" x1="0%" y1="0%" x2="100%" y2="100%">
      <stop offset="0%" stop-color="#0a0a0a"/>
      <stop offset="100%" stop-color="#1a1a2e"/>
    </linearGradient>
    <radialGradient id="glow" cx="22%" cy="45%" r="55%">
      <stop offset="0%" stop-color="#00ADD8" stop-opacity="0.3"/>
      <stop offset="100%" stop-color="#00ADD8" stop-opacity="0"/>
    </radialGradient>
  </defs>
  <rect width="1200" height="630" fill="url(#bgGrad)"/>
  <rect width="1200" height="630" fill="url(#glow)"/>
  <g opacity="1"><circle cx="66" cy="56" r="22" fill="#00ADD8"/><rect x="55.9" y="47.2" width="20.2" height="2.6" rx="1.5" fill="#ffffff" fill-opacity="0.9"/><rect x="55.9" y="50.2" width="20.2" height="2.6" rx="1.5" fill="#ffffff" fill-opacity="0.7"/><rect x="55.9" y="53.1" width="20.2" height="2.6" rx="1.5" fill="#ffffff" fill-opacity="0.5"/><rect x="55.9" y="56.1" width="20.2" height="2.6" rx="1.5" fill="#ffffff" fill-opacity="0.3"/>
  <text x="106" y="64.32" font-family="Liberation Sans, Arial, sans-serif" font-size="26" font-weight="bold" fill="#ffffff">Goca</text></g>
  <g opacity="1"><rect x="998" y="40" width="142" height="36" rx="18" fill="#00ADD8" fill-opacity="0.14" stroke="#00ADD8" stroke-width="1.3"/>
  <text x="1069" y="62.8" font-family="Liberation Sans, Arial, sans-serif" font-size="15" font-weight="700" letter-spacing="0.5" fill="#00D9FF" text-anchor="middle">ALL LAYERS</text></g>
  <g opacity="1"><circle cx="190" cy="350" r="110" fill="#00ADD8" fill-opacity="0.12" stroke="#00ADD8" stroke-width="2"/>
  <circle cx="190" cy="350" r="85" fill="#00ADD8"/>
  <g transform="translate(143.3,303.3) scale(3.896)" fill="none" stroke="#ffffff" stroke-width="2" stroke-linecap="round" stroke-linejoin="round"><path d="M4.5 16.5c-1.5 1.26-2 5-2 5s3.74-.5 5-2c.71-.84.7-2.13-.09-2.91a2.18 2.18 0 0 0-2.91-.09z"/><path d="m12 15-3-3a22 22 0 0 1 2-3.95A12.88 12.88 0 0 1 22 2c0 2.72-.78 7.5-6 11a22.35 22.35 0 0 1-4 2z"/><path d="M9 12H4s.55-3.03 2-4c1.62-1.08 5 0 5 0"/><path d="M12 15v5s3.03-.55 4-2c1.08-1.62 0-5 0-5"/></g></g>
  <text x="360" y="260" font-family="Liberation Sans, Arial, sans-serif" font-size="44" font-weight="bold" fill="#ffffff">Idea to feature</text>
  <text x="360" y="316" font-family="Liberation Sans, Arial, sans-serif" font-size="44" font-weight="bold" fill="#00D9FF">in seconds.</text>
  <text x="360" y="372" font-family="Liberation Sans, Arial, sans-serif" font-size="21" fill="#ffffff" fill-opacity="0.72">One command scaffolds domain, use case,</text>
  <text x="360" y="404" font-family="Liberation Sans, Arial, sans-serif" font-size="21" fill="#ffffff" fill-opacity="0.72">repository and handler — fully wired.</text>
  <g opacity="1"><rect x="360" y="460" width="780" height="64" rx="14" fill="#000000" fill-opacity="0.35" stroke="#00ADD8" stroke-width="1.5" stroke-opacity="0.5"/>
  <text x="384" y="498.4" font-family="Liberation Mono, monospace" font-size="20" fill="#00D9FF" text-anchor="start">$ goca feature Order --fields &quot;id:string,total:float64&quot;</text></g>
  <text x="1140" y="592" font-family="Liberation Sans, Arial, sans-serif" font-size="17" fill="#ffffff" fill-opacity="0.5" text-anchor="end">sazardev.github.io/goca</text>
</svg>
