<svg width="1200" height="630" xmlns="http://www.w3.org/2000/svg">
  <defs>
    <linearGradient id="bgGrad" x1="0%" y1="0%" x2="100%" y2="100%">
      <stop offset="0%" stop-color="#0a0a0a"/>
      <stop offset="100%" stop-color="#1a1a2e"/>
    </linearGradient>
    <radialGradient id="glow" cx="22%" cy="45%" r="55%">
      <stop offset="0%" stop-color="#00ADD8" stop-opacity="0.3"/>
      <stop offset="100%" stop-color="#00ADD8" stop-opacity="0"/>
    </radialGradient>
  </defs>
  <rect width="1200" height="630" fill="url(#bgGrad)"/>
  <rect width="1200" height="630" fill="url(#glow)"/>
  <g opacity="1"><circle cx="66" cy="56" r="22" fill="#00ADD8"/><rect x="55.9" y="47.2" width="20.2" height="2.6" rx="1.5" fill="#ffffff" fill-opacity="0.9"/><rect x="55.9" y="50.2" width="20.2" height="2.6" rx="1.5" fill="#ffffff" fill-opacity="0.7"/><rect x="55.9" y="53.1" width="20.2" height="2.6" rx="1.5" fill="#ffffff" fill-opacity="0.5"/><rect x="55.9" y="56.1" width="20.2" height="2.6" rx="1.5" fill="#ffffff" fill-opacity="0.3"/>
  <text x="106" y="64.32" font-family="Liberation Sans, Arial, sans-serif" font-size="26" font-weight="bold" fill="#ffffff">Goca</text></g>
  <g opacity="1"><rect x="910" y="40" width="230" height="36" rx="18" fill="#00ADD8" fill-opacity="0.14" stroke="#00ADD8" stroke-width="1.3"/>
  <text x="1025" y="62.8" font-family="Liberation Sans, Arial, sans-serif" font-size="15" font-weight="700" letter-spacing="0.5" fill="#00D9FF" text-anchor="middle">PROJECT SCAFFOLDING</text></g>
  <g opacity="1"><circle cx="190" cy="350" r="110" fill="#00ADD8" fill-opacity="0.12" stroke="#00ADD8" stroke-width="2"/>
  <circle cx="190" cy="350" r="85" fill="#00ADD8"/>
  <g transform="translate(143.3,303.3) scale(3.896)" fill="none" stroke="#ffffff" stroke-width="2" stroke-linecap="round" stroke-linejoin="round"><path d="m7.5 4.27 9 5.15"/><path d="M21 8a2 2 0 0 0-1-1.73l-7-4a2 2 0 0 0-2 0l-7 4A2 2 0 0 0 3 8v8a2 2 0 0 0 1 1.73l7 4a2 2 0 0 0 2 0l7-4A2 2 0 0 0 21 16Z"/><path d="m3.3 7 8.7 5 8.7-5"/><path d="M12 22V12"/></g></g>
  <text x="360" y="260" font-family="Liberation Sans, Arial, sans-serif" font-size="44" font-weight="bold" fill="#ffffff">Zero to project</text>
  <text x="360" y="316" font-family="Liberation Sans, Arial, sans-serif" font-size="44" font-weight="bold" fill="#00D9FF">in one command.</text>
  <text x="360" y="372" font-family="Liberation Sans, Arial, sans-serif" font-size="21" fill="#ffffff" fill-opacity="0.72">Full Clean Architecture skeleton, database,</text>
  <text x="360" y="404" font-family="Liberation Sans, Arial, sans-serif" font-size="21" fill="#ffffff" fill-opacity="0.72">API style and auth chosen up front.</text>
  <g opacity="1"><rect x="360" y="460" width="780" height="64" rx="14" fill="#000000" fill-opacity="0.35" stroke="#00ADD8" stroke-width="1.5" stroke-opacity="0.5"/>
  <text x="384" y="498.4" font-family="Liberation Mono, monospace" font-size="20" fill="#00D9FF" text-anchor="start">$ goca init shop --database postgres --api rest</text></g>
  <text x="1140" y="592" font-family="Liberation Sans, Arial, sans-serif" font-size="17" fill="#ffffff" fill-opacity="0.5" text-anchor="end">sazardev.github.io/goca</text>
</svg>
