<svg width="1080" height="1080" xmlns="http://www.w3.org/2000/svg">
  <defs>
    <linearGradient id="bgGrad" x1="0%" y1="0%" x2="100%" y2="100%">
      <stop offset="0%" stop-color="#0a0a0a"/>
      <stop offset="100%" stop-color="#1a1a2e"/>
    </linearGradient>
    <radialGradient id="glow" cx="50%" cy="35%" r="55%">
      <stop offset="0%" stop-color="#00ADD8" stop-opacity="0.3"/>
      <stop offset="100%" stop-color="#00ADD8" stop-opacity="0"/>
    </radialGradient>
  </defs>
  <rect width="1080" height="1080" fill="url(#bgGrad)"/>
  <rect width="1080" height="1080" fill="url(#glow)"/>
  <g opacity="1"><circle cx="88" cy="86" r="26" fill="#00ADD8"/><rect x="76.0" y="75.6" width="23.9" height="3.1" rx="1.5" fill="#ffffff" fill-opacity="0.9"/><rect x="76.0" y="79.1" width="23.9" height="3.1" rx="1.5" fill="#ffffff" fill-opacity="0.7"/><rect x="76.0" y="82.6" width="23.9" height="3.1" rx="1.5" fill="#ffffff" fill-opacity="0.5"/><rect x="76.0" y="86.1" width="23.9" height="3.1" rx="1.5" fill="#ffffff" fill-opacity="0.3"/>
  <text x="132" y="96.24" font-family="Liberation Sans, Arial, sans-serif" font-size="32" font-weight="bold" fill="#ffffff">Goca</text></g>
  <g opacity="1"><rect x="802" y="62" width="188" height="44" rx="22" fill="#00ADD8" fill-opacity="0.14" stroke="#00ADD8" stroke-width="1.3"/>
  <text x="896" y="89.44" font-family="Liberation Sans, Arial, sans-serif" font-size="17" font-weight="700" letter-spacing="0.5" fill="#00D9FF" text-anchor="middle">HANDLER LAYER</text></g>
  <g opacity="1"><circle cx="540" cy="430" r="120" fill="#00ADD8" fill-opacity="0.12" stroke="#00ADD8" stroke-width="2"/>
  <circle cx="540" cy="430" r="90" fill="#00ADD8"/>
  <g transform="translate(490.5,380.5) scale(4.125)" fill="none" stroke="#ffffff" stroke-width="2" stroke-linecap="round" stroke-linejoin="round"><path d="M20 13c0 5-3.5 7.5-7.66 8.95a1 1 0 0 1-.67-.01C7.5 20.5 4 18 4 13V6a1 1 0 0 1 1-1c2 0 4.5-1.2 6.24-2.72a1.17 1.17 0 0 1 1.52 0C14.51 3.79 17 5 19 5a1 1 0 0 1 1 1z"/></g></g>
  <text x="540" y="612" font-family="Liberation Sans, Arial, sans-serif" font-size="58" font-weight="bold" fill="#ffffff" text-anchor="middle">CORS, logging,</text>
  <text x="540" y="678" font-family="Liberation Sans, Arial, sans-serif" font-size="58" font-weight="bold" fill="#00D9FF" text-anchor="middle">recovery — done.</text>
  <text x="540" y="738" font-family="Liberation Sans, Arial, sans-serif" font-size="27" fill="#ffffff" fill-opacity="0.72" text-anchor="middle">Standard HTTP middleware, generated as</text>
  <text x="540" y="772" font-family="Liberation Sans, Arial, sans-serif" font-size="27" fill="#ffffff" fill-opacity="0.72" text-anchor="middle">a reusable package.</text>
  <g opacity="1"><rect x="90" y="850" width="900" height="72" rx="14" fill="#000000" fill-opacity="0.35" stroke="#00ADD8" stroke-width="1.5" stroke-opacity="0.5"/>
  <text x="540" y="893.68" font-family="Liberation Mono, monospace" font-size="24" fill="#00D9FF" text-anchor="middle">$ goca middleware auth --types &quot;cors,logging,recovery&quot;</text></g>
  <text x="540" y="1010" font-family="Liberation Sans, Arial, sans-serif" font-size="22" fill="#ffffff" fill-opacity="0.5" text-anchor="middle">sazardev.github.io/goca</text>
</svg>
